<svg width="277" height="47" viewBox="0 0 277 47" fill="none" xmlns="http://www.w3.org/2000/svg">
<path d="M35.8093 22.1086C36.1566 16.3835 38.6383 10.961 42.8125 6.88299C47.3236 2.47588 53.4419 -4.70547e-07 59.8215 0C66.2012 4.70547e-07 72.3195 2.47589 76.8306 6.88299C81.0048 10.961 83.4864 16.3835 83.8338 22.1086H66.9979C66.7181 20.731 66.0264 19.4535 64.995 18.4458C63.6229 17.1054 61.7619 16.3523 59.8215 16.3523C57.8811 16.3523 56.0202 17.1053 54.6481 18.4458C53.6167 19.4535 52.925 20.731 52.6451 22.1086H35.8093Z" fill="#F6F6F6"/>
<path d="M83.8239 25.0461H66.9647C66.6657 26.3645 65.9877 27.5843 64.995 28.5542C63.6229 29.8947 61.7619 30.6477 59.8215 30.6477C57.8811 30.6477 56.0202 29.8947 54.6481 28.5542C53.6554 27.5843 52.9774 26.3645 52.6784 25.0461H35.8192C36.2015 30.7141 38.6759 36.0757 42.8125 40.117C47.3236 44.5241 53.4419 47 59.8215 47C66.2012 47 72.3195 44.5241 76.8306 40.117C80.9672 36.0757 83.4416 30.7141 83.8239 25.0461Z" fill="#F6F6F6"/>
<path d="M64.0944 23.5C64.0944 25.8054 62.1813 27.6743 59.8215 27.6743C57.4617 27.6743 55.5487 25.8054 55.5487 23.5C55.5487 21.1946 57.4617 19.3257 59.8215 19.3257C62.1813 19.3257 64.0944 21.1946 64.0944 23.5Z" fill="#F6F6F6"/>
<path d="M6.15625 28.1875V46H0.15625V0.5H16.9375C21.9167 0.5 25.8125 1.77083 28.625 4.3125C31.4583 6.85417 32.875 10.2188 32.875 14.4062C32.875 18.8229 31.4896 22.2292 28.7188 24.625C25.9688 27 22.0208 28.1875 16.875 28.1875H6.15625ZM6.15625 23.2812H16.9375C20.1458 23.2812 22.6042 22.5312 24.3125 21.0312C26.0208 19.5104 26.875 17.3229 26.875 14.4688C26.875 11.7604 26.0208 9.59375 24.3125 7.96875C22.6042 6.34375 20.2604 5.5 17.2812 5.4375H6.15625V23.2812Z" fill="#F6F6F6"/>
<path d="M99.9688 24.8438L94.4062 30.625V46H88.4062V0.5H94.4062V23L114.625 0.5H121.875L103.969 20.5938L123.281 46H116.094L99.9688 24.8438Z" fill="#F6F6F6"/>
<path d="M154.25 24.9688H134.531V41.0938H157.438V46H128.531V0.5H157.125V5.4375H134.531V20.0625H154.25V24.9688Z" fill="#F6F6F6"/>
<path d="M164.906 46V0.5H177.75C181.708 0.5 185.208 1.375 188.25 3.125C191.292 4.875 193.635 7.36458 195.281 10.5938C196.948 13.8229 197.792 17.5312 197.812 21.7188V24.625C197.812 28.9167 196.979 32.6771 195.312 35.9062C193.667 39.1354 191.302 41.6146 188.219 43.3438C185.156 45.0729 181.583 45.9583 177.5 46H164.906ZM170.906 5.4375V41.0938H177.219C181.844 41.0938 185.438 39.6562 188 36.7812C190.583 33.9062 191.875 29.8125 191.875 24.5V21.8438C191.875 16.6771 190.656 12.6667 188.219 9.8125C185.802 6.9375 182.365 5.47917 177.906 5.4375H170.906Z" fill="#F6F6F6"/>
<path d="M232.625 24.9688H212.906V41.0938H235.812V46H206.906V0.5H235.5V5.4375H212.906V20.0625H232.625V24.9688Z" fill="#F6F6F6"/>
<path d="M258.125 17.9375L269.031 0.5H276.094L261.719 23.0625L276.438 46H269.312L258.125 28.25L246.875 46H239.781L254.531 23.0625L240.125 0.5H247.156L258.125 17.9375Z" fill="#F6F6F6"/>
</svg>
