<svg width="167" height="63" viewBox="0 0 167 63" fill="none" xmlns="http://www.w3.org/2000/svg">
<rect width="166.553" height="54" rx="27" fill="#009BCC"/>
<path d="M26.6306 28.0977H22.6228V35H20.3611V17.9375H26.0096C27.9314 17.9375 29.408 18.375 30.4392 19.25C31.4783 20.125 31.9978 21.3984 31.9978 23.0703C31.9978 24.1328 31.7088 25.0586 31.1306 25.8477C30.5603 26.6367 29.7635 27.2266 28.74 27.6172L32.7478 34.8594V35H30.3338L26.6306 28.0977ZM22.6228 26.2578H26.0799C27.1971 26.2578 28.0838 25.9688 28.74 25.3906C29.4041 24.8125 29.7361 24.0391 29.7361 23.0703C29.7361 22.0156 29.4197 21.207 28.7869 20.6445C28.1619 20.082 27.2556 19.7969 26.0681 19.7891H22.6228V26.2578ZM42.6502 35C42.5252 34.75 42.4236 34.3047 42.3455 33.6641C41.3377 34.7109 40.1346 35.2344 38.7361 35.2344C37.4861 35.2344 36.4588 34.8828 35.6541 34.1797C34.8572 33.4688 34.4588 32.5703 34.4588 31.4844C34.4588 30.1641 34.9588 29.1406 35.9588 28.4141C36.9666 27.6797 38.3806 27.3125 40.201 27.3125H42.3103V26.3164C42.3103 25.5586 42.0838 24.957 41.6306 24.5117C41.1775 24.0586 40.5096 23.832 39.6267 23.832C38.8533 23.832 38.2049 24.0273 37.6814 24.418C37.158 24.8086 36.8963 25.2812 36.8963 25.8359H34.7166C34.7166 25.2031 34.9392 24.5938 35.3846 24.0078C35.8377 23.4141 36.4471 22.9453 37.2127 22.6016C37.9861 22.2578 38.8338 22.0859 39.7556 22.0859C41.2166 22.0859 42.3611 22.4531 43.1892 23.1875C44.0174 23.9141 44.4471 24.918 44.4783 26.1992V32.0352C44.4783 33.1992 44.6267 34.125 44.9236 34.8125V35H42.6502ZM39.0525 33.3477C39.7322 33.3477 40.3767 33.1719 40.9861 32.8203C41.5955 32.4688 42.0369 32.0117 42.3103 31.4492V28.8477H40.6111C37.9549 28.8477 36.6267 29.625 36.6267 31.1797C36.6267 31.8594 36.8533 32.3906 37.3064 32.7734C37.7596 33.1562 38.3416 33.3477 39.0525 33.3477ZM49.9275 22.3203L49.9978 23.9141C50.9666 22.6953 52.2322 22.0859 53.7947 22.0859C56.4744 22.0859 57.826 23.5977 57.8494 26.6211V35H55.6814V26.6094C55.6736 25.6953 55.4627 25.0195 55.0486 24.582C54.6424 24.1445 54.0056 23.9258 53.1385 23.9258C52.4353 23.9258 51.8181 24.1133 51.2869 24.4883C50.7556 24.8633 50.3416 25.3555 50.0447 25.9648V35H47.8767V22.3203H49.9275ZM60.5916 28.5547C60.5916 26.6094 61.0525 25.0469 61.9744 23.8672C62.8963 22.6797 64.1033 22.0859 65.5955 22.0859C67.0799 22.0859 68.2556 22.5938 69.1228 23.6094V17H71.2908V35H69.2986L69.1931 33.6406C68.326 34.7031 67.1189 35.2344 65.5721 35.2344C64.1033 35.2344 62.9041 34.6328 61.9744 33.4297C61.0525 32.2266 60.5916 30.6562 60.5916 28.7188V28.5547ZM62.7596 28.8008C62.7596 30.2383 63.0564 31.3633 63.6502 32.1758C64.2439 32.9883 65.0642 33.3945 66.1111 33.3945C67.4861 33.3945 68.49 32.7773 69.1228 31.543V25.7188C68.4744 24.5234 67.4783 23.9258 66.1346 23.9258C65.0721 23.9258 64.2439 24.3359 63.6502 25.1562C63.0564 25.9766 62.7596 27.1914 62.7596 28.8008ZM74.0916 28.543C74.0916 27.3008 74.3338 26.1836 74.8181 25.1914C75.3103 24.1992 75.99 23.4336 76.8572 22.8945C77.7322 22.3555 78.7283 22.0859 79.8455 22.0859C81.5721 22.0859 82.9666 22.6836 84.0291 23.8789C85.0994 25.0742 85.6346 26.6641 85.6346 28.6484V28.8008C85.6346 30.0352 85.3963 31.1445 84.9197 32.1289C84.451 33.1055 83.7752 33.8672 82.8924 34.4141C82.0174 34.9609 81.0096 35.2344 79.8689 35.2344C78.1502 35.2344 76.7556 34.6367 75.6853 33.4414C74.6228 32.2461 74.0916 30.6641 74.0916 28.6953V28.543ZM76.2713 28.8008C76.2713 30.207 76.5955 31.3359 77.2439 32.1875C77.9002 33.0391 78.7752 33.4648 79.8689 33.4648C80.9705 33.4648 81.8455 33.0352 82.4939 32.1758C83.1424 31.3086 83.4666 30.0977 83.4666 28.543C83.4666 27.1523 83.1346 26.0273 82.4705 25.168C81.8142 24.3008 80.9392 23.8672 79.8455 23.8672C78.7752 23.8672 77.9119 24.293 77.2556 25.1445C76.5994 25.9961 76.2713 27.2148 76.2713 28.8008ZM90.3924 22.3203L90.451 23.7266C91.3806 22.6328 92.6346 22.0859 94.2127 22.0859C95.9861 22.0859 97.1931 22.7656 97.8338 24.125C98.2556 23.5156 98.8025 23.0234 99.4744 22.6484C100.154 22.2734 100.955 22.0859 101.877 22.0859C104.658 22.0859 106.072 23.5586 106.119 26.5039V35H103.951V26.6328C103.951 25.7266 103.744 25.0508 103.33 24.6055C102.916 24.1523 102.22 23.9258 101.244 23.9258C100.439 23.9258 99.7713 24.168 99.24 24.6523C98.7088 25.1289 98.4002 25.7734 98.3142 26.5859V35H96.1346V26.6914C96.1346 24.8477 95.2322 23.9258 93.4275 23.9258C92.0056 23.9258 91.033 24.5312 90.5096 25.7422V35H88.3416V22.3203H90.3924Z" fill="#F6F6F6"/>
<path d="M115.463 26.523C115.707 22.5033 117.45 18.696 120.38 15.8327C123.548 12.7384 127.844 11 132.323 11C136.802 11 141.098 12.7384 144.265 15.8327C147.196 18.696 148.939 22.5033 149.183 26.523H137.362C137.165 25.5558 136.679 24.6588 135.955 23.9513C134.992 23.0101 133.685 22.4814 132.323 22.4814C130.96 22.4814 129.654 23.0101 128.69 23.9513C127.966 24.6588 127.481 25.5558 127.284 26.523H115.463Z" fill="#F6F6F6"/>
<path d="M149.176 28.5855H137.338C137.128 29.5112 136.652 30.3677 135.955 31.0487C134.992 31.9899 133.685 32.5186 132.323 32.5186C130.96 32.5186 129.654 31.9899 128.69 31.0487C127.993 30.3677 127.517 29.5112 127.307 28.5855H115.47C115.739 32.5652 117.476 36.3298 120.38 39.1673C123.548 42.2616 127.844 44 132.323 44C136.802 44 141.098 42.2616 144.265 39.1673C147.17 36.3298 148.907 32.5652 149.176 28.5855Z" fill="#F6F6F6"/>
<path d="M135.323 27.5C135.323 29.1187 133.98 30.4309 132.323 30.4309C130.666 30.4309 129.323 29.1187 129.323 27.5C129.323 25.8813 130.666 24.5691 132.323 24.5691C133.98 24.5691 135.323 25.8813 135.323 27.5Z" fill="#F6F6F6"/>
</svg>
